<?xml version="1.0" encoding="utf-8"?>
<!-- Generator: Adobe Illustrator 16.0.0, SVG Export Plug-In . SVG Version: 6.00 Build 0)  -->
<!DOCTYPE svg PUBLIC "-//W3C//DTD SVG 1.1//EN" "http://www.w3.org/Graphics/SVG/1.1/DTD/svg11.dtd">
<svg version="1.1"
	 id="svg2" xmlns:svg="http://www.w3.org/2000/svg" xmlns:rdf="http://www.w3.org/1999/02/22-rdf-syntax-ns#" xmlns:cc="http://creativecommons.org/ns#" xmlns:sodipodi="http://sodipodi.sourceforge.net/DTD/sodipodi-0.dtd" xmlns:inkscape="http://www.inkscape.org/namespaces/inkscape" xmlns:dc="http://purl.org/dc/elements/1.1/" inkscape:output_extension="org.inkscape.output.svg.inkscape" sodipodi:docname="checkmarks_ocal081028_f1.svg" inkscape:version="0.46" sodipodi:version="0.32"
	 xmlns="http://www.w3.org/2000/svg" xmlns:xlink="http://www.w3.org/1999/xlink" x="0px" y="0px" width="190px" height="190px"
	 viewBox="0 0 190 190" enable-background="new 0 0 190 190" xml:space="preserve">
<defs>
	
	
		<inkscape:perspective  id="perspective10" inkscape:vp_x="0 : 526.18109 : 1" inkscape:vp_z="744.09448 : 526.18109 : 1" inkscape:vp_y="0 : 1000 : 0" sodipodi:type="inkscape:persp3d" inkscape:persp3d-origin="372.04724 : 350.78739 : 1">
		</inkscape:perspective>
	
		<inkscape:perspective  id="perspective3331" inkscape:vp_x="0 : 526.18109 : 1" inkscape:vp_z="744.09448 : 526.18109 : 1" inkscape:vp_y="0 : 1000 : 0" sodipodi:type="inkscape:persp3d" inkscape:persp3d-origin="372.04724 : 350.78739 : 1">
		</inkscape:perspective>
	
		<inkscape:perspective  id="perspective2502" inkscape:vp_x="0 : 526.18109 : 1" inkscape:vp_z="744.09448 : 526.18109 : 1" inkscape:vp_y="0 : 1000 : 0" sodipodi:type="inkscape:persp3d" inkscape:persp3d-origin="372.04724 : 350.78739 : 1">
		</inkscape:perspective>
	
		<inkscape:perspective  id="perspective2504" inkscape:vp_x="0 : 526.18109 : 1" inkscape:vp_z="744.09448 : 526.18109 : 1" inkscape:vp_y="0 : 1000 : 0" sodipodi:type="inkscape:persp3d" inkscape:persp3d-origin="372.04724 : 350.78739 : 1">
		</inkscape:perspective>
	
		<inkscape:perspective  id="perspective2448" inkscape:vp_x="0 : 526.18109 : 1" inkscape:vp_z="744.09448 : 526.18109 : 1" inkscape:vp_y="0 : 1000 : 0" sodipodi:type="inkscape:persp3d" inkscape:persp3d-origin="372.04724 : 350.78739 : 1">
		</inkscape:perspective>
	
		<inkscape:perspective  id="perspective2409" inkscape:vp_x="0 : 526.18109 : 1" inkscape:vp_z="744.09448 : 526.18109 : 1" inkscape:vp_y="0 : 1000 : 0" sodipodi:type="inkscape:persp3d" inkscape:persp3d-origin="372.04724 : 350.78739 : 1">
		</inkscape:perspective>
	
		<inkscape:perspective  id="perspective2407" inkscape:vp_x="0 : 526.18109 : 1" inkscape:vp_z="744.09448 : 526.18109 : 1" inkscape:vp_y="0 : 1000 : 0" sodipodi:type="inkscape:persp3d" inkscape:persp3d-origin="372.04724 : 350.78739 : 1">
		</inkscape:perspective>
</defs>
<sodipodi:namedview  showgrid="false" objecttolerance="10" id="base" guidetolerance="10" gridtolerance="10000" bordercolor="#666666" pagecolor="#ffffff" inkscape:cy="95" borderopacity="1.0" inkscape:cx="95" inkscape:zoom="3.9" inkscape:window-y="48" inkscape:window-x="158" inkscape:window-height="963" inkscape:window-width="1170" inkscape:current-layer="layer1" inkscape:document-units="px" inkscape:pageshadow="2" inkscape:pageopacity="0.0">
	</sodipodi:namedview>
<g id="layer1" transform="translate(-73.24779,-53.178333)" inkscape:label="Layer 1" inkscape:groupmode="layer">
	<g id="g2414" transform="translate(-123.39162,12.727619)" inkscape:label="Layer 1">
		<path id="path2418" sodipodi:nodetypes="csssccssssccc" fill="#FFFFFF" d="M289.669,57.934c-45.767,0-83.03,37.263-83.03,83.03
			c0,45.767,37.263,83.029,83.03,83.029s83.03-37.263,83.03-83.029c0-19.786-6.695-37.48-18.065-51.976l-7.817,9.266
			c9.912,12.204,13.792,25.754,13.792,42.71c0,39.221-31.718,70.92-70.939,70.92c-39.221,0-70.938-31.699-70.938-70.92
			c0-39.221,31.718-70.939,70.938-70.939c12.428,0,21.724,1.787,31.873,7.391l7.427-9.754
			C317.087,61.101,304.172,57.934,289.669,57.934z"/>
		<path id="path2510" fill="#FFFFFF" d="M258.939,130.044c3.348,0,5.881,2.748,7.598,8.242c3.434,10.302,5.881,15.453,7.34,15.453
			c1.116,0,2.275-0.858,3.477-2.575c24.124-38.633,46.445-69.882,66.963-93.749c5.322-6.181,13.778-9.271,25.368-9.271
			c2.747,0,4.593,0.258,5.538,0.772c0.943,0.515,1.416,1.159,1.416,1.932c0,1.202-1.416,3.563-4.25,7.083
			c-33.138,39.835-63.872,81.902-92.203,126.2c-1.975,3.091-6.01,4.636-12.105,4.636c-6.181,0-9.83-0.257-10.946-0.772
			c-2.919-1.288-6.353-7.854-10.302-19.702c-4.464-13.135-6.696-21.377-6.696-24.725c0-3.605,3.005-7.083,9.015-10.431
			C252.844,131.074,256.106,130.044,258.939,130.044"/>
	</g>
</g>
</svg>
