<?xml version="1.0" encoding="utf-8"?>
<!-- Generator: Adobe Illustrator 16.0.0, SVG Export Plug-In . SVG Version: 6.00 Build 0)  -->
<!DOCTYPE svg PUBLIC "-//W3C//DTD SVG 1.1//EN" "http://www.w3.org/Graphics/SVG/1.1/DTD/svg11.dtd">
<svg version="1.1" id="Layer_1" xmlns="http://www.w3.org/2000/svg" xmlns:xlink="http://www.w3.org/1999/xlink" x="0px" y="0px"
	 width="10px" height="280px" viewBox="0 0 10 280" enable-background="new 0 0 10 280" xml:space="preserve">
<g id="green_scallop">
	<path fill="#8FC357" d="M10.049,267.738H-0.049v7.32c0,2.51,2.248,4.545,5.022,4.545h0.079c2.579,0,4.702-1.76,4.987-4.025
		c0.002,0.016,0.008,0.027,0.01,0.043V267.738z"/>
</g>
<g id="white_reverse_scallop_bottom">
	<path fill="#FFFFFF" d="M10.049,45.237h-10v5.42c0.456-2.305,2.485-4.043,4.924-4.043h0.079c2.579,0,4.702,1.943,4.987,4.446
		c0.002-0.016,0.008-0.03,0.01-0.047V45.237z"/>
</g>
<g id="white_reverse_scallop_bottom_copy">
	<path fill="#FFFFFF" d="M10.049,166.283c-0.002-0.016-0.008-0.03-0.01-0.047c-0.285,2.504-2.408,4.447-4.987,4.447H4.973
		c-2.439,0-4.468-1.738-4.924-4.044v5.421h10V166.283z"/>
</g>
<g id="footer_dots">
	<g>
		<path fill="#8FC357" d="M3.239,18.293c0.204-0.203,0.448-0.398,0.759-0.398s0.559,0.191,0.763,0.396
			c0.204,0.203,0.394,0.453,0.394,0.763s-0.118,0.63-0.322,0.834c-0.203,0.204-0.524,0.347-0.834,0.347s-0.626-0.147-0.829-0.352
			s-0.306-0.518-0.306-0.829C2.864,18.743,3.038,18.499,3.239,18.293z"/>
	</g>
	<g>
		<path fill="#8FC357" d="M1.864,12.293c0.204-0.203,0.448-0.398,0.759-0.398s0.559,0.191,0.763,0.396
			c0.204,0.203,0.394,0.453,0.394,0.763s-0.119,0.63-0.322,0.834s-0.524,0.347-0.834,0.347s-0.626-0.147-0.829-0.352
			s-0.306-0.518-0.306-0.829C1.489,12.743,1.663,12.499,1.864,12.293z"/>
	</g>
	<g>
		<path fill="#8FC357" d="M3.863,6.292c0.204-0.203,0.448-0.398,0.759-0.398S5.181,6.087,5.385,6.29
			c0.204,0.203,0.395,0.451,0.395,0.763S5.661,7.684,5.458,7.888C5.255,8.091,4.934,8.233,4.624,8.233S3.998,8.085,3.795,7.882
			S3.489,7.364,3.489,7.053C3.489,6.743,3.663,6.499,3.863,6.292z"/>
	</g>
	<g>
		<path fill="#8FC357" d="M6.398,1.013C6.602,0.81,6.846,0.616,7.157,0.616c0.311,0,0.56,0.191,0.764,0.395s0.394,0.452,0.394,0.764
			S8.197,2.405,7.993,2.608C7.791,2.812,7.471,2.956,7.159,2.956c-0.31,0-0.626-0.15-0.829-0.354S6.023,2.086,6.023,1.773
			C6.023,1.463,6.197,1.218,6.398,1.013z"/>
	</g>
	<g>
		<path fill="#8FC357" d="M3.238,18.293c0.204-0.203,0.448-0.398,0.759-0.398s0.559,0.191,0.763,0.396
			c0.204,0.203,0.394,0.453,0.394,0.763s-0.118,0.63-0.321,0.834s-0.524,0.347-0.834,0.347s-0.626-0.147-0.829-0.352
			s-0.306-0.518-0.306-0.829C2.864,18.743,3.038,18.499,3.238,18.293z"/>
	</g>
	<g>
		<path fill="#8FC357" d="M1.864,12.293c0.204-0.203,0.448-0.398,0.759-0.398s0.559,0.191,0.763,0.396
			c0.204,0.203,0.394,0.453,0.394,0.763s-0.119,0.63-0.322,0.834s-0.524,0.347-0.834,0.347s-0.626-0.147-0.829-0.352
			s-0.306-0.518-0.306-0.829C1.489,12.743,1.663,12.499,1.864,12.293z"/>
	</g>
	<g>
		<path fill="#8FC357" d="M3.863,6.292c0.204-0.203,0.448-0.398,0.759-0.398c0.312,0,0.56,0.193,0.764,0.396
			C5.59,6.493,5.779,6.741,5.779,7.053s-0.117,0.631-0.32,0.835C5.256,8.091,4.935,8.233,4.625,8.233
			c-0.311,0-0.627-0.148-0.83-0.352S3.489,7.364,3.489,7.053C3.489,6.743,3.663,6.499,3.863,6.292z"/>
	</g>
	<g>
		<path fill="#8FC357" d="M6.398,1.013C6.602,0.81,6.846,0.616,7.157,0.616c0.311,0,0.559,0.191,0.764,0.395
			c0.204,0.203,0.394,0.452,0.394,0.764S8.197,2.405,7.993,2.608C7.791,2.812,7.468,2.956,7.159,2.956
			c-0.31,0-0.626-0.15-0.829-0.354S6.023,2.086,6.023,1.773C6.023,1.463,6.195,1.219,6.398,1.013z"/>
	</g>
</g>
</svg>
