<?xml version="1.0" encoding="utf-8"?>
<!-- Generator: Adobe Illustrator 15.0.0, SVG Export Plug-In . SVG Version: 6.00 Build 0)  -->
<!DOCTYPE svg PUBLIC "-//W3C//DTD SVG 1.1//EN" "http://www.w3.org/Graphics/SVG/1.1/DTD/svg11.dtd">
<svg version="1.1" id="Layer_1" xmlns="http://www.w3.org/2000/svg" xmlns:xlink="http://www.w3.org/1999/xlink" x="0px" y="0px"
	 width="23.505px" height="20px" viewBox="0 0 23.505 20" style="enable-background:new 0 0 23.505 20;" xml:space="preserve">
<style type="text/css">
<![CDATA[
	.st0{fill:#FFFFFF;}
]]>
</style>
<path class="st0" d="M23.505,3.917c0,0.683-0.554,1.237-1.237,1.237H1.237C0.554,5.155,0,4.601,0,3.917V1.237
	C0,0.554,0.554,0,1.237,0h21.031c0.683,0,1.237,0.554,1.237,1.237V3.917z"/>
<path class="st0" d="M23.505,11.34c0,0.683-0.554,1.237-1.237,1.237H1.237C0.554,12.577,0,12.023,0,11.34V8.66
	c0-0.683,0.554-1.237,1.237-1.237h21.031c0.683,0,1.237,0.554,1.237,1.237V11.34z"/>
<path class="st0" d="M23.505,18.763c0,0.683-0.554,1.237-1.237,1.237H1.237C0.554,20,0,19.446,0,18.763v-2.681
	c0-0.683,0.554-1.237,1.237-1.237h21.031c0.683,0,1.237,0.554,1.237,1.237V18.763z"/>
</svg>
