<?xml version="1.0" encoding="utf-8"?>
<!-- Generator: Adobe Illustrator 15.0.2, SVG Export Plug-In . SVG Version: 6.00 Build 0)  -->
<!DOCTYPE svg PUBLIC "-//W3C//DTD SVG 1.1//EN" "http://www.w3.org/Graphics/SVG/1.1/DTD/svg11.dtd">
<svg version="1.1" id="Layer_2" xmlns="http://www.w3.org/2000/svg" xmlns:xlink="http://www.w3.org/1999/xlink" x="0px" y="0px"
	 width="23px" height="990px" viewBox="0 -72 23 990" enable-background="new 0 -72 23 990" xml:space="preserve">
<path id="blog_1_" fill-rule="evenodd" clip-rule="evenodd" fill="#EA175D" d="M4.225,592.661v1.017h3.048v-1.017H4.225z
	 M4.225,594.693v1.016h3.048v-1.016H4.225z M1.177,589.614v10.159h9.144v-10.159H1.177z M3.211,591.646h5.078v6.095H3.211V591.646z"
	/>
<path id="user_1_" fill-rule="evenodd" clip-rule="evenodd" fill="#EA175D" d="M10.504,564.676c-1.004-1.25-2.524-1.062-3.011-1.176
	c-0.503-0.115-0.575-0.288-0.288-0.92c0.288-0.63,1.076-0.815,0.859-2.824c-0.167-1.551-1.266-1.729-1.828-1.729v-0.003H5.833v0.011
	c-0.576,0.012-1.994,0.241-2.07,1.88c-0.085,1.979,0.632,2.107,0.905,2.74c0.285,0.629,0.214,0.802-0.273,0.917
	c-0.503,0.114-1.894-0.146-2.897,1.104c-1.002,1.261-0.573,2.523-0.573,2.523s1.773,1.08,4.909,1.141v0.011h0.403v-0.014
	c3.09-0.076,4.842-1.138,4.842-1.138S11.508,565.937,10.504,564.676z"/>
<g id="date_1_">
	<path fill="#EA175D" d="M10.314,528.48h-0.117v-0.297c0-0.51-0.413-0.923-0.921-0.923c-0.51,0-0.923,0.413-0.923,0.923v0.297H5.411
		v-0.297c0-0.51-0.413-0.923-0.921-0.923c-0.51,0-0.922,0.413-0.922,0.923v0.297H3.541c-0.64,0-1.162,0.523-1.162,1.162v6.149
		c0,0.638,0.522,1.161,1.162,1.161h6.773c0.639,0,1.161-0.523,1.161-1.161v-6.149C11.475,529.004,10.953,528.48,10.314,528.48z
		 M8.887,528.272c0-0.215,0.175-0.386,0.388-0.386c0.212,0,0.387,0.171,0.387,0.386v0.476c0,0.214-0.175,0.387-0.387,0.387
		c-0.213,0-0.388-0.173-0.388-0.387V528.272z M4.104,528.272c0-0.215,0.173-0.386,0.387-0.386c0.213,0,0.387,0.171,0.387,0.386
		v0.476c0,0.214-0.174,0.387-0.387,0.387c-0.214,0-0.387-0.173-0.387-0.387V528.272z M10.84,536.096c0,0.16-0.13,0.291-0.289,0.291
		H3.245c-0.162,0-0.292-0.131-0.292-0.291v-6.05c0-0.16,0.13-0.291,0.292-0.291h7.306c0.159,0,0.289,0.131,0.289,0.291V536.096z"/>
	<path fill="#EA175D" d="M9.951,530.939H9.322c-0.158,0-0.289,0.131-0.289,0.289v0.623c0,0.159,0.131,0.29,0.289,0.29h0.629
		c0.158,0,0.289-0.131,0.289-0.29v-0.623C10.24,531.07,10.109,530.939,9.951,530.939z"/>
	<path fill="#EA175D" d="M8.135,530.939H7.508c-0.159,0-0.29,0.131-0.29,0.289v0.623c0,0.159,0.131,0.29,0.29,0.29h0.627
		c0.16,0,0.291-0.131,0.291-0.29v-0.623C8.426,531.07,8.295,530.939,8.135,530.939z"/>
	<path fill="#EA175D" d="M6.318,530.939H5.693c-0.16,0-0.291,0.131-0.291,0.289v0.623c0,0.159,0.131,0.29,0.291,0.29h0.625
		c0.161,0,0.292-0.131,0.292-0.29v-0.623C6.61,531.07,6.479,530.939,6.318,530.939z"/>
	<path fill="#EA175D" d="M9.951,532.754H9.322c-0.158,0-0.289,0.131-0.289,0.29v0.623c0,0.16,0.131,0.291,0.289,0.291h0.629
		c0.158,0,0.289-0.131,0.289-0.291v-0.623C10.24,532.885,10.109,532.754,9.951,532.754z"/>
	<path fill="#EA175D" d="M8.135,532.754H7.508c-0.159,0-0.29,0.131-0.29,0.29v0.623c0,0.16,0.131,0.291,0.29,0.291h0.627
		c0.16,0,0.291-0.131,0.291-0.291v-0.623C8.426,532.885,8.295,532.754,8.135,532.754z"/>
	<path fill="#EA175D" d="M6.318,532.754H5.693c-0.16,0-0.291,0.131-0.291,0.29v0.623c0,0.16,0.131,0.291,0.291,0.291h0.625
		c0.161,0,0.292-0.131,0.292-0.291v-0.623C6.61,532.885,6.479,532.754,6.318,532.754z"/>
	<path fill="#EA175D" d="M4.504,532.754H3.878c-0.16,0-0.291,0.131-0.291,0.29v0.623c0,0.16,0.131,0.291,0.291,0.291h0.626
		c0.16,0,0.291-0.131,0.291-0.291v-0.623C4.795,532.885,4.664,532.754,4.504,532.754z"/>
	<path fill="#EA175D" d="M8.135,534.563H7.508c-0.159,0-0.29,0.132-0.29,0.291v0.623c0,0.159,0.131,0.29,0.29,0.29h0.627
		c0.16,0,0.291-0.131,0.291-0.29v-0.623C8.426,534.694,8.295,534.563,8.135,534.563z"/>
	<path fill="#EA175D" d="M6.318,534.563H5.693c-0.16,0-0.291,0.132-0.291,0.291v0.623c0,0.159,0.131,0.29,0.291,0.29h0.625
		c0.161,0,0.292-0.131,0.292-0.29v-0.623C6.61,534.694,6.479,534.563,6.318,534.563z"/>
	<path fill="#EA175D" d="M4.504,534.563H3.878c-0.16,0-0.291,0.132-0.291,0.291v0.623c0,0.159,0.131,0.29,0.291,0.29h0.626
		c0.16,0,0.291-0.131,0.291-0.29v-0.623C4.795,534.694,4.664,534.563,4.504,534.563z"/>
</g>
<path id="photo_credit_1_" fill="#EA175D" d="M14.53,496.607h-0.914c-0.201-0.04-0.723-0.238-0.824-1.221
	c-0.006-0.051-0.063-0.559-0.42-0.559c-0.15,0-2.021,0-2.021,0h-0.191c0,0-1.868,0-2.021,0c-0.354,0-0.413,0.508-0.417,0.559
	c-0.104,0.982-0.625,1.181-0.824,1.221H2.339c-0.589,0-1.071,0.484-1.071,1.073v6.898c0,0.59,0.482,1.072,1.071,1.072H14.53
	c0.588,0,1.072-0.482,1.072-1.072v-6.898C15.603,497.092,15.118,496.607,14.53,496.607z M9.086,495.665h2.215
	c0.268,0,0.484,0.218,0.484,0.487c0,0.268-0.217,0.487-0.484,0.487H9.086c-0.266,0-0.486-0.22-0.486-0.487
	C8.6,495.883,8.82,495.665,9.086,495.665z M4.912,503.872c0,0.268-0.218,0.484-0.486,0.484s-0.487-0.217-0.487-0.484v-5.889
	c0-0.27,0.219-0.485,0.487-0.485s0.486,0.216,0.486,0.485V503.872z M6.071,498.101c0-0.329,0.267-0.598,0.596-0.598
	s0.596,0.269,0.596,0.598c0,0.33-0.267,0.598-0.596,0.598S6.071,498.431,6.071,498.101z M10.261,504.338
	c-1.821,0-3.297-1.478-3.297-3.299c0-1.818,1.476-3.296,3.297-3.296c1.822,0,3.295,1.478,3.295,3.296
	C13.556,502.86,12.083,504.338,10.261,504.338z"/>
<path id="time_1_" fill-rule="evenodd" clip-rule="evenodd" fill="#EA175D" d="M8.611,469.253H6.81v-2.214
	c0-0.26-0.214-0.475-0.489-0.475c-0.26,0-0.474,0.215-0.474,0.475v2.703c0,0.26,0.214,0.475,0.474,0.475h2.291
	c0.26,0,0.474-0.215,0.474-0.475C9.085,469.468,8.871,469.253,8.611,469.253z M6.778,464.762c2.307,0,4.186,1.88,4.186,4.187
	s-1.879,4.17-4.186,4.17s-4.187-1.863-4.187-4.17S4.472,464.762,6.778,464.762z M6.778,474.448c3.025,0,5.502-2.476,5.502-5.5
	c0-3.04-2.477-5.5-5.502-5.5c-3.041,0-5.499,2.46-5.499,5.5C1.279,471.973,3.737,474.448,6.778,474.448z"/>
<g id="pink_alert_1_">
	<path fill-rule="evenodd" clip-rule="evenodd" fill="#EA175D" d="M1.093,396.599c0-3.813,4.716-6.905,10.535-6.905
		c5.822,0,10.54,3.092,10.54,6.905c0,3.262-3.456,5.995-8.099,6.716c0.376,1.221,1.008,2.66,1.995,3.379
		c-1.905,0.001-3.785-1.7-5.072-3.205C5.469,403.272,1.093,400.27,1.093,396.599z"/>
	<g>
		<path fill="#FFFFFF" d="M10.563,392.594h2.134v1.637l-0.412,3.287h-1.32l-0.401-3.287V392.594z M10.638,398.02h1.989v1.76h-1.989
			V398.02z"/>
	</g>
</g>
<polygon id="plus_1_" fill="#EA175D" points="13.108,362.911 8.983,362.911 8.983,358.786 6.233,358.786 6.233,362.911 
	2.108,362.911 2.108,365.661 6.233,365.661 6.233,369.786 8.983,369.786 8.983,365.661 13.108,365.661 "/>
<g id="list_1_">
	<circle fill="#EA175D" cx="4.025" cy="329.453" r="1.125"/>
	<path fill="#EA175D" d="M14.9,329.828c0-0.412-0.338-0.75-0.75-0.75H7.4c-0.412,0-0.75,0.338-0.75,0.75l0,0
		c0,0.412,0.338,0.75,0.75,0.75h6.75C14.563,330.578,14.9,330.24,14.9,329.828L14.9,329.828z"/>
	<circle fill="#EA175D" cx="4.025" cy="333.203" r="1.125"/>
	<path fill="#EA175D" d="M14.9,333.578c0-0.412-0.338-0.75-0.75-0.75H7.4c-0.412,0-0.75,0.338-0.75,0.75l0,0
		c0,0.412,0.338,0.75,0.75,0.75h6.75C14.563,334.328,14.9,333.99,14.9,333.578L14.9,333.578z"/>
	<circle fill="#EA175D" cx="4.025" cy="336.953" r="1.125"/>
	<path fill="#EA175D" d="M14.9,337.328c0-0.412-0.338-0.75-0.75-0.75H7.4c-0.412,0-0.75,0.338-0.75,0.75l0,0
		c0,0.412,0.338,0.75,0.75,0.75h6.75C14.563,338.078,14.9,337.74,14.9,337.328L14.9,337.328z"/>
</g>
<polygon id="pink_check" fill="#EA175D" points="13.65,298.395 12.428,297.095 5.862,302.488 2.858,300.275 1.65,301.578 
	5.357,305.889 6.011,306.649 6.693,305.914 "/>
<polygon id="blue_check" fill="#0891C0" points="13.65,788.3 12.428,787 5.862,792.394 2.858,790.181 1.65,791.483 5.357,795.794 
	6.011,796.555 6.693,795.819 "/>
<polygon id="white_check" fill="#FFFFFF" points="13.65,821.395 12.428,820.095 5.862,825.488 2.858,823.275 1.65,824.578 
	5.357,828.889 6.011,829.649 6.693,828.914 "/>
<path id="phone_1_" fill="#EA175D" d="M9.537,265.052v-1.665H8.217v1.654H4.019c-0.855,0-1.548,0.726-1.548,1.621v8.104
	c0,0.896,0.692,1.62,1.548,1.62h5.413c0.855,0,1.549-0.725,1.549-1.62v-8.104C10.981,265.804,10.342,265.109,9.537,265.052z
	 M9.432,273.608c0,0.64-0.44,1.158-0.983,1.158H7.434c0-0.448-0.317-0.811-0.709-0.811c-0.391,0-0.709,0.362-0.709,0.811H5.002
	c-0.543,0-0.983-0.519-0.983-1.158v-5.789c0-0.64,0.44-1.157,0.983-1.157h3.446c0.543,0,0.983,0.518,0.983,1.157V273.608z"/>
<path id="pink_heart_1_" fill="#EA175D" d="M9.526,165.72c0.318-1,0.804-1.758,1.456-2.274c0.654-0.517,1.446-0.775,2.377-0.775
	c1.102,0,1.987,0.336,2.657,1.009c0.67,0.673,1.006,1.563,1.006,2.67c0,0.971-0.233,1.752-0.698,2.342
	c-0.466,0.591-1.36,1.164-2.684,1.721l-0.171,0.077c-2.168,0.915-3.483,1.937-3.944,3.066c-0.471-1.136-1.783-2.158-3.935-3.066
	c-0.08-0.034-0.143-0.06-0.188-0.077c-1.329-0.557-2.225-1.127-2.688-1.712s-0.694-1.368-0.694-2.351c0-1.107,0.336-1.997,1.01-2.67
	c0.673-0.673,1.557-1.009,2.653-1.009c0.937,0,1.729,0.258,2.381,0.775C8.715,163.962,9.203,164.72,9.526,165.72z"/>
<path id="blue_heart_1_" fill="#0891C0" d="M9.526,133.72c0.318-1,0.804-1.758,1.456-2.274c0.654-0.517,1.446-0.775,2.377-0.775
	c1.102,0,1.987,0.336,2.657,1.009c0.67,0.673,1.006,1.563,1.006,2.67c0,0.971-0.233,1.752-0.698,2.342
	c-0.466,0.591-1.36,1.164-2.684,1.721l-0.171,0.077c-2.168,0.915-3.483,1.937-3.944,3.066c-0.471-1.136-1.783-2.158-3.935-3.066
	c-0.08-0.034-0.143-0.06-0.188-0.077c-1.329-0.557-2.225-1.127-2.688-1.712s-0.694-1.368-0.694-2.351c0-1.107,0.336-1.997,1.01-2.67
	c0.673-0.673,1.557-1.009,2.653-1.009c0.937,0,1.729,0.258,2.381,0.775C8.715,131.962,9.203,132.721,9.526,133.72z"/>
<path id="white_heart_1_" fill="#FFFFFF" d="M9.526,233.72c0.318-1,0.804-1.758,1.456-2.274c0.654-0.517,1.446-0.775,2.377-0.775
	c1.102,0,1.987,0.336,2.657,1.009c0.67,0.673,1.006,1.563,1.006,2.67c0,0.971-0.233,1.752-0.698,2.342
	c-0.466,0.591-1.36,1.164-2.684,1.721l-0.171,0.077c-2.168,0.915-3.483,1.937-3.944,3.066c-0.471-1.136-1.783-2.158-3.935-3.066
	c-0.08-0.034-0.143-0.06-0.188-0.077c-1.329-0.557-2.225-1.127-2.688-1.712s-0.694-1.368-0.694-2.351c0-1.107,0.336-1.997,1.01-2.67
	c0.673-0.673,1.557-1.009,2.653-1.009c0.937,0,1.729,0.258,2.381,0.775C8.715,231.962,9.203,232.721,9.526,233.72z"/>
<path id="blue_x_1_" fill="#0891C0" d="M13.653,97.605c-0.037,0.087-0.078,0.168-0.125,0.243s-0.098,0.146-0.154,0.214l-0.027,0.121
	c-0.766,0.759-1.5,1.536-2.202,2.332c-0.703,0.796-1.375,1.61-2.015,2.443c0.447,0.597,0.904,1.192,1.37,1.786
	c0.467,0.594,0.946,1.183,1.438,1.768c-0.114,0.355-0.233,0.613-0.356,0.774c-0.125,0.162-0.277,0.255-0.458,0.28
	c-0.068,0.068-0.122,0.149-0.162,0.242c-0.041,0.093-0.062,0.19-0.062,0.29v0.038c-0.043,0.037-0.12,0.102-0.232,0.195
	s-0.2,0.168-0.262,0.224c-0.094-0.037-0.189-0.087-0.289-0.149c-0.1-0.063-0.199-0.14-0.299-0.233
	c-0.074,0.117-0.166,0.228-0.274,0.33c-0.109,0.103-0.229,0.195-0.359,0.276l-0.252-0.038c-0.373-0.435-0.735-0.896-1.086-1.385
	c-0.352-0.488-0.695-0.999-1.031-1.534c-0.591,0.739-1.141,1.443-1.651,2.107c-0.51,0.666-0.991,1.313-1.445,1.94l-0.289,0.02
	l-0.354-0.42l0.074-0.308l-0.12-0.092c-0.057,0.012-0.116,0.03-0.178,0.055c-0.063,0.025-0.149,0.072-0.262,0.14
	c-0.161-0.137-0.305-0.288-0.429-0.453c-0.124-0.164-0.228-0.343-0.308-0.536c0.038-0.099,0.087-0.21,0.149-0.332
	c0.062-0.121,0.094-0.19,0.094-0.209c0-0.056-0.04-0.167-0.117-0.335c-0.078-0.168-0.139-0.314-0.182-0.439
	c0.497-0.615,1.022-1.248,1.576-1.897c0.553-0.65,1.141-1.326,1.763-2.029c-0.46-0.821-0.872-1.657-1.236-2.509
	c-0.363-0.852-0.685-1.729-0.965-2.63c0.094-0.143,0.194-0.275,0.303-0.396c0.109-0.121,0.226-0.231,0.351-0.331
	c0.111,0.081,0.193,0.143,0.246,0.187c0.054,0.044,0.104,0.09,0.154,0.14c0.056-0.025,0.107-0.053,0.154-0.084
	c0.046-0.031,0.092-0.065,0.135-0.103c0-0.106,0.011-0.198,0.033-0.275c0.021-0.078,0.061-0.147,0.116-0.209l0.363-0.093
	c0.236,0.162,0.716,0.802,1.437,1.921c0.485,0.752,0.887,1.359,1.203,1.819c0.728-0.833,1.469-1.63,2.225-2.393
	c0.756-0.762,1.528-1.49,2.319-2.187c0.162,0.068,0.303,0.158,0.428,0.27c0.125,0.112,0.23,0.246,0.318,0.401l-0.113,0.224
	c0.039,0.068,0.08,0.127,0.131,0.177s0.105,0.093,0.168,0.131h0.363L13.653,97.605z"/>
<path id="white_x_1_" fill="#FFFFFF" d="M13.653,196.605c-0.037,0.087-0.078,0.168-0.125,0.243s-0.098,0.146-0.154,0.214
	l-0.027,0.121c-0.766,0.759-1.5,1.536-2.202,2.332c-0.703,0.796-1.375,1.61-2.015,2.443c0.447,0.597,0.904,1.192,1.37,1.786
	c0.467,0.594,0.946,1.183,1.438,1.768c-0.114,0.355-0.233,0.613-0.356,0.774c-0.125,0.162-0.277,0.255-0.458,0.28
	c-0.068,0.068-0.122,0.149-0.162,0.242c-0.041,0.093-0.062,0.19-0.062,0.29v0.038c-0.043,0.037-0.12,0.102-0.232,0.195
	s-0.2,0.168-0.262,0.224c-0.094-0.037-0.189-0.087-0.289-0.149c-0.1-0.063-0.199-0.14-0.299-0.233
	c-0.074,0.117-0.166,0.228-0.274,0.33c-0.109,0.103-0.229,0.195-0.359,0.276l-0.252-0.038c-0.373-0.435-0.735-0.896-1.086-1.385
	c-0.352-0.488-0.695-0.999-1.031-1.534c-0.591,0.739-1.141,1.443-1.651,2.107c-0.51,0.666-0.991,1.313-1.445,1.94l-0.289,0.02
	l-0.354-0.42l0.074-0.308l-0.12-0.092c-0.057,0.012-0.116,0.03-0.178,0.055c-0.063,0.025-0.149,0.072-0.262,0.14
	c-0.161-0.137-0.305-0.288-0.429-0.453c-0.124-0.164-0.228-0.343-0.308-0.536c0.038-0.099,0.087-0.21,0.149-0.332
	c0.062-0.121,0.094-0.19,0.094-0.209c0-0.056-0.04-0.167-0.117-0.335c-0.078-0.168-0.139-0.314-0.182-0.439
	c0.497-0.615,1.022-1.248,1.576-1.897c0.553-0.65,1.141-1.326,1.763-2.029c-0.46-0.821-0.872-1.657-1.236-2.509
	c-0.363-0.852-0.685-1.729-0.965-2.63c0.094-0.143,0.194-0.275,0.303-0.396c0.109-0.121,0.226-0.231,0.351-0.331
	c0.111,0.081,0.193,0.143,0.246,0.187c0.054,0.044,0.104,0.09,0.154,0.14c0.056-0.025,0.107-0.053,0.154-0.084
	c0.046-0.031,0.092-0.065,0.135-0.103c0-0.106,0.011-0.198,0.033-0.275c0.021-0.078,0.061-0.147,0.116-0.209l0.363-0.093
	c0.236,0.162,0.716,0.802,1.437,1.921c0.485,0.752,0.887,1.359,1.203,1.819c0.728-0.833,1.469-1.63,2.225-2.393
	c0.756-0.762,1.528-1.49,2.319-2.187c0.162,0.068,0.303,0.158,0.428,0.27c0.125,0.112,0.23,0.246,0.318,0.401l-0.113,0.224
	c0.039,0.068,0.08,0.127,0.131,0.177s0.105,0.093,0.168,0.131h0.363L13.653,196.605z"/>
<polygon id="close_1_" fill="#EA175D" points="10.577,63.919 7.66,66.836 4.743,63.919 2.799,65.863 5.716,68.78 2.799,71.697 
	4.743,73.642 7.66,70.725 10.577,73.642 12.522,71.697 9.604,68.78 12.522,65.863 "/>
<path id="white-bubble_1_" fill-rule="evenodd" clip-rule="evenodd" fill="#FFFFFF" d="M1.984-65.75c0-3.452,4.268-6.25,9.535-6.25
	c5.269,0,9.54,2.798,9.54,6.25c0,2.952-3.128,5.426-7.33,6.079c0.34,1.105,0.912,2.408,1.806,3.058
	c-1.725,0.001-3.426-1.539-4.591-2.901C5.944-59.709,1.984-62.427,1.984-65.75z"/>
<path id="search_1_" fill-rule="evenodd" clip-rule="evenodd" fill="#FFFFFF" d="M14.952,436.835
	c1.052-1.053,1.565-2.445,1.565-3.863c0-2.936-2.496-5.43-5.43-5.43c-2.959,0-5.453,2.446-5.453,5.404
	c0,0.927,0.233,1.854,0.689,2.684c0.171,0.312-1.864,1.891-1.864,1.891l-2.52,2.543c-0.195,0.244-0.293,0.562-0.293,0.879
	c0,0.783,0.66,1.492,1.467,1.492c0.318,0,0.612-0.098,0.88-0.294l2.543-2.543c0,0,1.512-2.056,1.783-1.897
	c0.851,0.495,1.801,0.749,2.766,0.749C12.482,438.449,13.876,437.911,14.952,436.835z M8.715,435.367
	c-0.66-0.661-0.978-1.517-0.978-2.396c0-1.786,1.516-3.327,3.35-3.327c1.785,0,3.326,1.516,3.326,3.327
	c0,1.858-1.517,3.375-3.326,3.375C10.232,436.347,9.376,436.003,8.715,435.367z"/>
<linearGradient id="dot-blue-shadow_2_" gradientUnits="userSpaceOnUse" x1="7.3755" y1="10.9233" x2="7.3755" y2="-1.5381">
	<stop  offset="0.0061" style="stop-color:#7CC8EF"/>
	<stop  offset="0.0587" style="stop-color:#73C2EB"/>
	<stop  offset="0.3657" style="stop-color:#43A4D5"/>
	<stop  offset="0.636" style="stop-color:#1F8EC5"/>
	<stop  offset="0.8566" style="stop-color:#0A80BC"/>
	<stop  offset="1" style="stop-color:#027BB8"/>
</linearGradient>
<circle id="dot-blue-shadow_1_" fill-rule="evenodd" clip-rule="evenodd" fill="url(#dot-blue-shadow_2_)" cx="7.375" cy="4.692" r="6.23"/>
<linearGradient id="dot-blue_2_" gradientUnits="userSpaceOnUse" x1="7.3755" y1="10.168" x2="7.3755" y2="-0.7827">
	<stop  offset="0" style="stop-color:#027BB8"/>
	<stop  offset="0.1434" style="stop-color:#0A80BC"/>
	<stop  offset="0.364" style="stop-color:#1F8EC5"/>
	<stop  offset="0.6343" style="stop-color:#43A4D5"/>
	<stop  offset="0.9413" style="stop-color:#73C2EB"/>
	<stop  offset="0.9939" style="stop-color:#7CC8EF"/>
</linearGradient>
<circle id="dot-blue_1_" fill-rule="evenodd" clip-rule="evenodd" fill="url(#dot-blue_2_)" cx="7.375" cy="4.692" r="5.475"/>
<linearGradient id="dot-inset-shadow_2_" gradientUnits="userSpaceOnUse" x1="8.0972" y1="-23.937" x2="8.0972" y2="-36.3984">
	<stop  offset="0" style="stop-color:#F1F1F1"/>
	<stop  offset="0.3684" style="stop-color:#EEEEEE"/>
	<stop  offset="0.6196" style="stop-color:#E5E6E6"/>
	<stop  offset="0.8353" style="stop-color:#D6D7D8"/>
	<stop  offset="0.9879" style="stop-color:#C6C7C9"/>
</linearGradient>
<circle id="dot-inset-shadow_1_" fill-rule="evenodd" clip-rule="evenodd" fill="url(#dot-inset-shadow_2_)" cx="8.097" cy="-30.168" r="6.23"/>
<linearGradient id="dot-inset_2_" gradientUnits="userSpaceOnUse" x1="8.0972" y1="-35.6431" x2="8.0972" y2="-24.6924">
	<stop  offset="0" style="stop-color:#E7E6E6"/>
	<stop  offset="0.2361" style="stop-color:#F4F4F4"/>
	<stop  offset="0.5295" style="stop-color:#FDFCFC"/>
	<stop  offset="1" style="stop-color:#FFFFFF"/>
</linearGradient>
<circle id="dot-inset_1_" fill-rule="evenodd" clip-rule="evenodd" fill="url(#dot-inset_2_)" cx="8.098" cy="-30.168" r="5.476"/>
<linearGradient id="dot-disabled_2_" gradientUnits="userSpaceOnUse" x1="7.3755" y1="42.1685" x2="7.3755" y2="31.2178">
	<stop  offset="0" style="stop-color:#6AB3D9"/>
	<stop  offset="0.4793" style="stop-color:#70BAE1"/>
	<stop  offset="0.9939" style="stop-color:#7CC8EF"/>
</linearGradient>
<circle id="dot-disabled_1_" fill-rule="evenodd" clip-rule="evenodd" fill="url(#dot-disabled_2_)" cx="7.375" cy="36.693" r="5.476"/>
<g id="alarm_clock">
	<path fill="#EC135C" d="M9.637,622.152c-4.224,0-7.656,3.432-7.656,7.659c0,2.201,0.934,4.182,2.421,5.577l-1.629,1.63
		c-0.248,0.247-0.248,0.654,0,0.902c0.248,0.247,0.654,0.247,0.902,0l1.729-1.729c1.212,0.807,2.668,1.279,4.232,1.279
		c1.702,0,3.263-0.557,4.532-1.493c0.027,0.047,0.051,0.097,0.092,0.14l1.805,1.804c0.249,0.247,0.653,0.247,0.903,0
		c0.248-0.248,0.248-0.655,0-0.902l-1.805-1.806c-0.018-0.017-0.042-0.022-0.059-0.039c1.354-1.382,2.19-3.273,2.19-5.362
		C17.296,625.584,13.87,622.152,9.637,622.152z M9.637,634.917c-2.815,0-5.105-2.289-5.105-5.105c0-2.813,2.29-5.105,5.105-5.105
		c2.816,0,5.107,2.293,5.107,5.105C14.744,632.628,12.453,634.917,9.637,634.917z"/>
	<path fill="#EC135C" d="M9.872,629.24v-0.97c0-0.353-0.287-0.639-0.639-0.639s-0.639,0.286-0.639,0.639v1.276
		c0,0.012,0.007,0.022,0.007,0.032c0.003,0.046,0.015,0.089,0.026,0.131c0.012,0.038,0.018,0.075,0.035,0.112
		c0.017,0.034,0.042,0.064,0.067,0.095c0.024,0.037,0.049,0.072,0.083,0.103c0.01,0.007,0.013,0.018,0.023,0.024l2.077,1.663
		c0.117,0.091,0.257,0.137,0.396,0.137c0.188,0,0.373-0.08,0.5-0.238c0.22-0.277,0.176-0.677-0.101-0.896L9.872,629.24z"/>
	<path fill="#EC135C" d="M18.282,620.144c-1.493-1.493-3.799-1.677-5.494-0.555l6.048,6.052
		C19.958,623.945,19.773,621.641,18.282,620.144z"/>
	<path fill="#EC135C" d="M1.461,620.144c-1.492,1.497-1.677,3.802-0.555,5.497l6.049-6.052
		C5.259,618.467,2.953,618.65,1.461,620.144z"/>
</g>
<g id="apple">
	<g>
		<path fill="#EC135C" d="M4.478,710.898c0.336,0,0.774,0.201,1.239,0.413c0.66,0.303,1.408,0.645,2.321,0.645
			c0.87,0,1.584-0.328,2.157-0.593c0.553-0.255,0.914-0.411,1.354-0.411c0.27,0,0.561,0.059,0.893,0.178
			c0.422,0.152,1.545,0.557,1.545,2.82c0,2.963-2.729,5.562-5.839,5.562c-3.11,0-5.838-2.599-5.838-5.562
			c0-2.044,0.295-2.257,1.694-2.928C4.234,710.911,4.385,710.898,4.478,710.898L4.478,710.898 M4.478,708.59
			c-0.456,0-0.946,0.098-1.475,0.352C0.77,710.013,0,711.05,0,713.95c0,4.156,3.648,7.87,8.147,7.87c4.499,0,8.147-3.714,8.147-7.87
			c0-2.431-1-4.246-3.072-4.992c-0.629-0.227-1.182-0.314-1.674-0.314c-1.668,0-2.643,1.004-3.511,1.004
			C7.107,709.647,5.979,708.59,4.478,708.59L4.478,708.59z"/>
	</g>
	<g>
		<path fill="#EC135C" d="M9.516,705.887c-0.135,0-0.265,0.057-0.35,0.194l-1.328,2.139c-0.219,0.354,0.169,0.732,0.517,0.732
			c0.135,0,0.264-0.058,0.349-0.194l1.327-2.138C10.252,706.266,9.865,705.887,9.516,705.887L9.516,705.887z"/>
	</g>
	<g>
		<path fill="#EC135C" d="M2.613,702.58c-0.293,0-0.545,0.045-0.671,0.17c-0.357,0.355-0.071,1.73,0.113,2.123
			c0.267,0.563,0.466,1.225,1.451,1.927c0.756,0.542,3.369,1.297,3.455,1.297c0.001,0,0.001,0,0.002,0c0,0,0.023,0.009,0.061,0.009
			c0.056,0,0.145-0.019,0.237-0.112c0.146-0.146,0.101-0.299,0.101-0.299c0.016-0.039-0.816-2.637-1.314-3.435
			c-0.557-0.889-1.297-1.23-1.943-1.437C3.787,702.724,3.134,702.58,2.613,702.58L2.613,702.58z"/>
	</g>
</g>
<path id="wheat" fill="none" stroke="#EC135C" stroke-width="1.1544" stroke-miterlimit="10" d="M7.307,751.639
	c0.137-0.671,0.204-1.519-0.105-2.344c1.066-0.624,2.479-0.375,3.106-0.217l0.599-2.25c0.024-0.095,0.117-0.15,0.206-0.125
	c0.094,0.023,0.147,0.118,0.122,0.208l-0.601,2.262l0,0c0,0-0.116,1.576-0.985,2.634c-0.339-0.091-0.915-0.215-1.583-0.222
	C7.822,751.585,7.568,751.598,7.307,751.639z M8.222,744.757l0.559-2.095c0.022-0.089-0.034-0.183-0.122-0.207
	c-0.091-0.023-0.186,0.031-0.209,0.119l-0.555,2.097c-0.532,0.262-1.96,1.085-2.313,2.407c-0.033,0.125-0.055,0.25-0.068,0.381
	c0.53,0.298,1.084,0.726,1.457,1.353c0.636-0.357,1.327-0.455,1.936-0.454c0.051-0.118,0.096-0.237,0.128-0.365
	C9.386,746.669,8.554,745.251,8.222,744.757z M4.642,750.678c0.534,0.3,1.092,0.729,1.47,1.36c0.201-0.112,0.408-0.2,0.616-0.265
	c0.181-0.725,0.286-1.716-0.138-2.55c-0.583-1.146-2.004-1.657-2.649-1.836l0.595-2.253c0.028-0.091-0.028-0.186-0.118-0.208
	c-0.089-0.026-0.184,0.029-0.207,0.12l-0.601,2.262H3.609c0,0-0.68,1.426-0.447,2.774C3.499,750.173,4.059,750.353,4.642,750.678z
	 M7.209,754.816c0.666,0.007,1.245,0.13,1.58,0.22c0.872-1.059,0.985-2.632,0.985-2.632c0.017-0.078,0.004-0.167-0.12-0.202
	c-0.086-0.022-0.169,0.023-0.2,0.106c-0.627-0.161-2.042-0.409-3.109,0.216c0.308,0.827,0.244,1.675,0.103,2.344
	C6.709,754.83,6.969,754.815,7.209,754.816z M3.785,753.907c0.533,0.301,1.091,0.732,1.47,1.362c0.198-0.114,0.409-0.2,0.614-0.268
	c0.183-0.72,0.287-1.716-0.136-2.546c-0.584-1.151-2.008-1.661-2.654-1.841c0.014-0.086-0.037-0.167-0.122-0.191
	c-0.123-0.033-0.182,0.043-0.208,0.113c0,0-0.678,1.427-0.446,2.776C2.639,753.402,3.204,753.581,3.785,753.907z M8.919,755.631
	c0.008-0.064-0.009-0.17-0.121-0.2c-0.087-0.022-0.173,0.028-0.204,0.11c-0.625-0.16-2.039-0.41-3.108,0.214
	c0.366,0.979,0.206,1.994,0.022,2.705c-0.092,0.348-0.197,0.629-0.268,0.801c0.668,0.039,1.458-0.034,2.097-0.455
	C8.752,757.877,8.919,755.631,8.919,755.631z M5.016,758.211c0.18-0.718,0.28-1.702-0.14-2.527
	c-0.585-1.148-2.011-1.658-2.654-1.838c0.015-0.087-0.038-0.171-0.121-0.192c-0.115-0.029-0.18,0.049-0.206,0.112
	c0,0-0.97,2.034-0.204,3.539c0.443,0.87,1.37,1.374,2.072,1.646l-0.558,2.102c-0.072,0.271,0.089,0.55,0.361,0.621
	c0.271,0.071,0.554-0.089,0.625-0.361C4.193,761.313,4.984,758.345,5.016,758.211z"/>
<g id="lightbulb">
	<g>
		<path fill="#EC135C" d="M11.584,665.944c2.475,0,4.487,2.013,4.487,4.485c0,1.543-0.794,2.96-2.124,3.79l-0.905,0.564v1.067v0.626
			h-2.91v-0.623v-1.067l-0.905-0.564c-1.332-0.831-2.126-2.249-2.126-3.793C7.101,667.957,9.112,665.944,11.584,665.944
			 M11.584,664.021c-3.534,0-6.407,2.877-6.407,6.409c0,2.294,1.217,4.292,3.031,5.425v2.547h6.758v-2.55
			c1.813-1.132,3.029-3.128,3.029-5.422C17.995,666.897,15.121,664.021,11.584,664.021L11.584,664.021z"/>
	</g>
	<path fill="#EC135C" d="M8.131,679.856c0,0.622,0.51,1.134,1.133,1.134h0.859c0.085,0.688,0.665,1.222,1.377,1.222
		c0.712,0,1.292-0.534,1.375-1.222h0.861c0.625,0,1.133-0.512,1.133-1.134v-0.712H8.131V679.856z"/>
	<path fill="#EC135C" d="M22.396,671.524h-2.033c-0.334,0-0.604,0.273-0.604,0.605c0,0.333,0.271,0.605,0.604,0.605h2.033
		c0.333,0,0.604-0.272,0.604-0.605C23,671.798,22.729,671.524,22.396,671.524z"/>
	<path fill="#EC135C" d="M11.022,659.729v2.032c0,0.334,0.273,0.604,0.607,0.604c0.332,0,0.604-0.27,0.604-0.604v-2.032
		c0-0.334-0.273-0.604-0.604-0.604C11.295,659.125,11.022,659.395,11.022,659.729z"/>
	<path fill="#EC135C" d="M2.814,671.454H0.782c-0.334,0-0.605,0.272-0.605,0.605c0,0.334,0.271,0.606,0.605,0.606h2.032
		c0.333,0,0.604-0.272,0.604-0.606C3.419,671.727,3.148,671.454,2.814,671.454z"/>
	<path fill="#EC135C" d="M19.297,662.952l-1.437,1.438c-0.236,0.236-0.235,0.62,0,0.855c0.233,0.236,0.619,0.236,0.855,0
		l1.438-1.438c0.235-0.234,0.235-0.619-0.001-0.854C19.917,662.718,19.533,662.718,19.297,662.952z"/>
	<path fill="#EC135C" d="M4.655,664.983l-1.437-1.437c-0.237-0.236-0.235-0.621,0-0.856c0.235-0.236,0.62-0.236,0.856,0l1.438,1.438
		c0.235,0.235,0.234,0.619,0,0.854C5.276,665.218,4.891,665.218,4.655,664.983z"/>
</g>
<g id="menu">
	<rect x="1.999" y="849.916" fill="#FFFFFF" width="19.001" height="3.917"/>
	<rect x="1.999" y="849.999" opacity="0.1" fill="#231F20" width="19.001" height="1.001"/>
	<rect x="1.999" y="855.916" fill="#FFFFFF" width="19.001" height="3.917"/>
	<rect x="1.999" y="855.999" opacity="0.1" fill="#231F20" width="19.001" height="1.001"/>
	<rect x="1.999" y="861.916" fill="#FFFFFF" width="19.001" height="3.917"/>
	<rect x="1.999" y="861.999" opacity="0.1" fill="#231F20" width="19.001" height="1.001"/>
</g>
<g id="menu_blue">
	<rect x="1.833" y="889.916" fill="#0891C0" width="19.001" height="3.917"/>
	<rect x="1.833" y="889.999" opacity="0.1" fill="#231F20" width="19.001" height="1.001"/>
	<rect x="1.833" y="895.916" fill="#0891C0" width="19.001" height="3.917"/>
	<rect x="1.833" y="895.999" opacity="0.1" fill="#231F20" width="19.001" height="1.001"/>
	<rect x="1.833" y="901.916" fill="#0891C0" width="19.001" height="3.917"/>
	<rect x="1.833" y="901.999" opacity="0.1" fill="#231F20" width="19.001" height="1.001"/>
</g>
</svg>
